<svg xmlns="http://www.w3.org/2000/svg" width="94" height="30" viewBox="0 0 94 30" fill="none"><g id="Layer_1"><g id="Group"><g id="Group_2"><path id="Vector" d="M25.8203 28.9848C25.6935 28.9848 25.5786 28.909 25.5286 28.7923L19.3422 14.3298L13.3666 28.7889C13.3177 28.9075 13.2017 28.9848 13.0734 28.9848H12.2413C12.1145 28.9848 11.9996 28.909 11.9497 28.7923L0.342179 1.63471C0.300407 1.53662 0.310477 1.42435 0.369033 1.33559C0.427588 1.24682 0.527171 1.19312 0.633466 1.19312H7.37895C7.50576 1.19312 7.62063 1.26883 7.67061 1.38557L12.665 13.0669L15.5361 5.67319L13.9182 1.62799C13.879 1.53028 13.891 1.41951 13.9499 1.3326C14.0088 1.2457 14.1073 1.19349 14.2125 1.19349H20.8703C20.9975 1.19349 21.1123 1.26957 21.1619 1.38631L26.1138 13.0229L30.6495 1.39526C30.6969 1.27368 30.8143 1.19349 30.9449 1.19349H37.6467C37.7519 1.19349 37.8504 1.2457 37.9093 1.33298C37.9682 1.42025 37.9798 1.53102 37.9406 1.62874L26.9899 28.7863C26.9414 28.9064 26.8251 28.9848 26.696 28.9848H25.8199H25.8203Z" fill="#FCF7F3"></path></g><g id="Group_3"><path id="Vector_2" d="M53.2857 28.9846C51.2135 28.9846 49.248 28.6109 47.4439 27.8736C45.7055 27.1631 44.1652 26.1367 42.865 24.8223C40.2569 22.1854 38.8202 18.5729 38.8202 14.6508C38.8202 10.7286 40.2565 7.11608 42.865 4.47921C44.1648 3.16524 45.7055 2.13847 47.4439 1.42796C49.248 0.690607 51.2131 0.316895 53.2857 0.316895C55.3583 0.316895 57.307 0.690607 59.1088 1.42796C60.8461 2.13884 62.3872 3.16524 63.6893 4.47883C66.3082 7.12093 67.7509 10.7331 67.7509 14.6508C67.7509 18.5684 66.3086 22.1806 63.6893 24.8227C62.3872 26.1363 60.8461 27.1627 59.1088 27.8736C57.307 28.6109 55.3478 28.9846 53.2857 28.9846ZM53.2857 7.03925C48.985 7.03925 45.9812 10.1692 45.9812 14.6508C45.9812 19.1323 48.985 22.2619 53.2857 22.2619C57.5864 22.2619 60.5903 19.132 60.5903 14.6508C60.5903 10.1696 57.5864 7.03925 53.2857 7.03925Z" fill="#FCF7F3"></path></g><g id="Group_4"><path id="Vector_3" d="M86.445 28.1085C86.3234 28.1085 86.2126 28.0392 86.1597 27.9295L84.9322 25.3926H74.9516L73.7667 27.9258C73.7145 28.0373 73.6026 28.1085 73.4795 28.1085H66.5588C66.4502 28.1085 66.3492 28.053 66.291 27.9612C66.2328 27.8695 66.2257 27.7546 66.272 27.6561L79.0621 0.498902C79.1143 0.387758 79.2262 0.316895 79.3489 0.316895H80.488C80.6103 0.316895 80.7218 0.387385 80.7744 0.498157L93.6522 27.6558C93.6988 27.7538 93.6918 27.8691 93.6336 27.9612C93.5754 28.0533 93.4743 28.1089 93.3658 28.1089H86.445V28.1085ZM82.449 20.1595L79.8733 14.4852L77.2599 20.1595H82.449Z" fill="#FCF7F3"></path></g></g></g></svg>